<?xml version="1.0" standalone="no"?>
<!DOCTYPE svg PUBLIC "-//W3C//DTD SVG 20010904//EN" "http://www.w3.org/TR/2001/REC-SVG-20010904/DTD/svg10.dtd">
<!-- Created using Krita: https://krita.org -->
<svg xmlns="http://www.w3.org/2000/svg" 
    xmlns:xlink="http://www.w3.org/1999/xlink"
    xmlns:krita="http://krita.org/namespaces/svg/krita"
    xmlns:sodipodi="http://sodipodi.sourceforge.net/DTD/sodipodi-0.dtd"
    width="120pt"
    height="120pt"
    viewBox="0 0 120 120">
<defs/>
<path id="shape0" transform="translate(13.1324933539628, 13.308671015283)" fill="#ffffff" fill-rule="evenodd" stroke="#ffffff" stroke-width="0.6" stroke-linecap="square" stroke-linejoin="bevel" d="M93.3975 40.6913L83.3925 40.7813C82.9617 34.839 80.1667 28.829 75.0075 22.7513C68.1215 14.6394 60.8818 12.1275 56.8875 11.1113C48.1219 8.88134 39.9175 9.8262 36.0075 11.1113C26.0753 14.3758 19.4359 21.0741 16.8075 24.6713C14.2251 28.2056 9.84817 36.4151 9.84751 46.6913C9.84722 51.0592 10.9533 60.1106 16.7475 68.5313C21.7493 75.8004 28.7123 79.403 32.2275 80.8313C41.4086 84.5619 49.9659 83.9416 54.0675 83.0063C63.3499 80.8897 70.1715 76.4147 74.8125 71.0063C79.7624 65.238 82.6274 59.153 83.4075 52.7513L93.3075 52.8113C92.211 60.4438 90.111 66.4438 87.0075 70.8113C85.1373 73.4433 82.1251 78.4804 76.2075 83.1113C69.4601 88.3917 63.1318 90.7523 59.5875 91.6913C50.0631 94.2146 42.1573 93.627 38.0475 92.8313C27.9275 90.872 20.8734 85.9848 17.4075 83.2313C14.1144 80.6152 8.22903 75.107 4.08751 66.1913C0.272668 57.979 -0.061442 50.5756 0.00750658 46.6913C0.08557 42.2935 0.723601 33.8984 5.40751 24.7913C9.75501 16.3383 15.78 11.3913 19.0275 8.89133C21.7041 6.83087 26.9366 3.18595 34.5675 1.39133C45.7869 -1.24723 55.2654 0.456062 60.1275 1.69133C63.4129 2.52602 69.3706 4.70716 75.6075 9.67133C78.5871 12.0429 82.0746 14.7037 88.2075 24.4913C89.9326 27.2444 91.6626 32.6444 93.3975 40.6913Z" sodipodi:nodetypes="ccsssssssssccsssssssssssssc"/>
</svg>
